<?xml version="1.0" ?><!-- Uploaded to: SVG Repo, www.svgrepo.com, Generator: SVG Repo Mixer Tools -->
<svg width="800px" height="800px" viewBox="0 0 32 32" enable-background="new 0 0 32 32" id="Editable-line" version="1.1" xml:space="preserve" xmlns="http://www.w3.org/2000/svg" xmlns:xlink="http://www.w3.org/1999/xlink"><path d="  M16.842,3.548l3.29,6.984c0.137,0.29,0.401,0.491,0.707,0.538l7.357,1.12c0.77,0.117,1.077,1.108,0.52,1.677l-5.324,5.436  c-0.221,0.226-0.322,0.551-0.27,0.87l1.257,7.676c0.131,0.803-0.673,1.416-1.362,1.036l-6.58-3.624c-0.273-0.151-0.6-0.151-0.873,0  l-6.58,3.624c-0.688,0.379-1.493-0.233-1.362-1.036l1.257-7.676c0.052-0.319-0.049-0.644-0.27-0.87l-5.324-5.436  c-0.557-0.569-0.25-1.56,0.52-1.677l7.357-1.12c0.306-0.047,0.57-0.248,0.707-0.538l3.29-6.984  C15.503,2.817,16.497,2.817,16.842,3.548z" fill="none" id="XMLID_16_" stroke="#1DC071" stroke-linecap="round" stroke-linejoin="round" stroke-miterlimit="10" stroke-width="2"/></svg>