<svg xmlns="http://www.w3.org/2000/svg" version="1.1" xmlns:xlink="http://www.w3.org/1999/xlink" xmlns:svgjs="http://svgjs.dev/svgjs" width="1000" height="914" viewBox="0 0 1000 914"><g transform="matrix(1,0,0,1,0.8623182783635457,0.370040485829918)"><svg viewBox="0 0 270 247" data-background-color="#ffffff" preserveAspectRatio="xMidYMid meet" height="914" width="1000" xmlns="http://www.w3.org/2000/svg" xmlns:xlink="http://www.w3.org/1999/xlink"><g id="tight-bounds" transform="matrix(1,0,0,1,-0.23282593515816075,-0.09999999999999432)"><svg viewBox="0 0 270.46564035211276 247.2" height="247.2" width="270.46564035211276"><g><svg viewBox="0 0 395.52 361.4970976450548" height="247.2" width="270.46564035211276"><g transform="matrix(1,0,0,1,0,260.51800171184107)"><svg viewBox="0 0 395.52 100.97909593321374" height="100.97909593321374" width="395.52"><g><svg viewBox="0 0 395.52 100.97909593321374" height="100.97909593321374" width="395.52"><g><svg viewBox="0 0 395.52 65.94978761861725" height="65.94978761861725" width="395.52"><g transform="matrix(1,0,0,1,0,0)"><svg width="395.52" viewBox="3.049999952316284 -35.54999923706055 216.09999084472656 36.040000915527344" height="65.94978761861725" data-palette-color="#5e1914"><path d="M10.74-35.55L10.74 0 3.05 0 3.05-35.55 10.74-35.55ZM24.68-20.56L24.68-14.38 8.69-14.38 8.69-20.56 24.68-20.56ZM26.37-35.55L26.37-29.35 8.69-29.35 8.69-35.55 26.37-35.55ZM49.88-35.55L57.57-35.55 57.57-12.18Q57.57-8.06 55.81-5.22 54.05-2.39 50.96-0.95 47.87 0.49 43.87 0.49L43.87 0.49Q39.84 0.49 36.73-0.95 33.62-2.39 31.87-5.22 30.12-8.06 30.12-12.18L30.12-12.18 30.12-35.55 37.81-35.55 37.81-12.18Q37.81-9.89 38.52-8.46 39.23-7.03 40.6-6.36 41.97-5.69 43.87-5.69L43.87-5.69Q45.8-5.69 47.14-6.36 48.48-7.03 49.18-8.46 49.88-9.89 49.88-12.18L49.88-12.18 49.88-35.55ZM92.5-35.55L92.5 0 84.83 0 71.04-22.88 71.04 0 63.37 0 63.37-35.55 71.04-35.55 84.86-12.65 84.86-35.55 92.5-35.55ZM109.66 0L101.97 0 102.02-6.18 109.66-6.18Q112.47-6.18 114.38-7.42 116.3-8.67 117.28-11.08 118.25-13.5 118.25-17.02L118.25-17.02 118.25-18.58Q118.25-22.12 117.28-24.51 116.3-26.9 114.4-28.13 112.49-29.35 109.71-29.35L109.71-29.35 101.82-29.35 101.82-35.55 109.71-35.55Q114.52-35.55 118.19-33.4 121.87-31.25 123.94-27.43 126.02-23.61 126.02-18.53L126.02-18.53 126.02-17.02Q126.02-11.94 123.94-8.11 121.87-4.27 118.19-2.14 114.52 0 109.66 0L109.66 0ZM106.34-35.55L106.34 0 98.65 0 98.65-35.55 106.34-35.55ZM155.12-6.18L155.12 0 136.34 0 136.34-6.18 155.12-6.18ZM138.81-35.55L138.81 0 131.12 0 131.12-35.55 138.81-35.55ZM152.68-21.26L152.68-15.28 136.34-15.28 136.34-21.26 152.68-21.26ZM155.09-35.55L155.09-29.35 136.34-29.35 136.34-35.55 155.09-35.55ZM159.24-35.55L172.62-35.55Q176.75-35.55 179.71-34.31 182.68-33.08 184.26-30.7 185.85-28.32 185.85-24.8L185.85-24.8Q185.85-21.88 184.89-19.82 183.92-17.77 182.19-16.43 180.46-15.09 178.11-14.26L178.11-14.26 175.67-12.87 164.27-12.87 164.22-19.07 172.59-19.07Q174.45-19.07 175.7-19.69 176.94-20.31 177.55-21.46 178.16-22.61 178.16-24.17L178.16-24.17Q178.16-26.56 176.81-27.95 175.45-29.35 172.62-29.35L172.62-29.35 166.91-29.35 166.91 0 159.24 0 159.24-35.55ZM178.92 0L170.91-15.8 179.02-15.84 187.15-0.37 187.15 0 178.92 0ZM191.24-35.55L204.62-35.55Q208.75-35.55 211.72-34.31 214.68-33.08 216.27-30.7 217.86-28.32 217.86-24.8L217.86-24.8Q217.86-21.88 216.89-19.82 215.93-17.77 214.19-16.43 212.46-15.09 210.12-14.26L210.12-14.26 207.68-12.87 196.27-12.87 196.23-19.07 204.6-19.07Q206.45-19.07 207.7-19.69 208.94-20.31 209.56-21.46 210.17-22.61 210.17-24.17L210.17-24.17Q210.17-26.56 208.81-27.95 207.46-29.35 204.62-29.35L204.62-29.35 198.91-29.35 198.91 0 191.24 0 191.24-35.55ZM210.92 0L202.91-15.8 211.02-15.84 219.15-0.37 219.15 0 210.92 0Z" opacity="1" transform="matrix(1,0,0,1,0,0)" fill="#5e1914" class="undefined-text-0" data-fill-palette-color="primary" id="text-0"></path></svg></g></svg></g><g transform="matrix(1,0,0,1,75.54432,81.51894968046994)"><svg viewBox="0 0 244.43135999999998 19.460146252743808" height="19.460146252743808" width="244.43135999999998"><g transform="matrix(1,0,0,1,0,0)"><svg width="244.43135999999998" viewBox="-0.20000000298023224 -40.15999984741211 700.6400146484375 55.790000915527344" height="19.460146252743808" data-palette-color="#8d021f"><path d="M13.92-33.45L13.48-33.45Q10.55-33.45 10.55-31.2L10.55-31.2Q10.55-30.79 10.71-30.32 10.86-29.86 10.99-29.35L10.99-29.35 20.34-6.84Q20.46-6.59 20.73-6.59 21-6.59 21.17-6.86L21.17-6.86 26.56-19.56 21.8-31.05Q21.36-32.15 18.14-33.15L18.14-33.15Q17.19-33.45 16.91-33.45 16.63-33.45 16.63-33.64L16.63-33.64 16.63-34.23Q16.63-34.42 16.82-34.42L16.82-34.42 39.18-34.42Q39.38-34.42 39.38-34.23L39.38-34.23 39.38-33.64Q39.38-33.45 39.18-33.45L39.18-33.45 38.28-33.45Q35.94-33.45 34.72-31.15L34.72-31.15Q34.3-30.37 33.86-29.32L33.86-29.32 30.69-21.88 36.94-6.84Q37.06-6.59 37.33-6.59 37.6-6.59 37.77-6.86L37.77-6.86 48.1-31.15Q48.39-31.84 48.39-32.37L48.39-32.37Q48.39-33.45 45.58-33.45L45.58-33.45 44.07-33.45Q43.87-33.45 43.87-33.64L43.87-33.64 43.87-34.23Q43.87-34.42 44.07-34.42L44.07-34.42 54.93-34.42Q55.13-34.42 55.13-34.23L55.13-34.23 55.13-33.64Q55.13-33.45 54.93-33.45L54.93-33.45 53.78-33.45Q52.71-33.45 52.16-32.7 51.61-31.96 50.61-29.66L50.61-29.66 38.06-0.2Q37.79 0.39 37.5 0.52 37.21 0.66 36.65 0.66L36.65 0.66 35.5 0.66Q34.91 0.66 34.72 0.12L34.72 0.12 28.13-15.84 21.46-0.2Q21.19 0.39 20.9 0.52 20.61 0.66 20.04 0.66L20.04 0.66 18.9 0.66Q18.31 0.66 18.14 0.1L18.14 0.1 5.2-31.05Q4.81-32.01 2.78-32.73 0.76-33.45 0.28-33.45-0.2-33.45-0.2-33.64L-0.2-33.64-0.2-34.23Q-0.2-34.42 0-34.42L0-34.42 13.92-34.42Q14.11-34.42 14.11-34.23L14.11-34.23 14.11-33.64Q14.11-33.45 13.92-33.45L13.92-33.45ZM31.79-32.3L31.79-32.3Q31.79-33.33 29.69-33.42L29.69-33.42Q27.56-33.3 27.25-31.93L27.25-31.93Q27.15-31.59 27.15-31.19 27.15-30.79 27.31-30.32 27.47-29.86 27.59-29.35L27.59-29.35 29.13-25.61 31.49-31.15Q31.79-31.84 31.79-32.3ZM75.02-12.87L60.86-12.87Q60.45-12.87 60.45-11.08L60.45-11.08Q60.45-7.3 62.69-4.74 64.94-2.17 68.27-2.17 71.6-2.17 74.68-5.05L74.68-5.05Q74.73-5.1 74.8-5.1L74.8-5.1 74.92-5.1Q75.07-5.1 75.21-4.87 75.34-4.64 75.46-4.57L75.46-4.57Q72.63-1.12 68.8 0.2L68.8 0.2Q67.48 0.66 65.82 0.66 64.16 0.66 62.45-0.26 60.74-1.17 59.52-2.66L59.52-2.66Q56.93-5.76 56.93-10.39 56.93-15.01 59.75-18.82 62.57-22.63 67.5-22.63L67.5-22.63Q71.04-22.63 73.29-19.47 75.53-16.31 75.53-13.92L75.53-13.92Q75.53-12.87 75.02-12.87L75.02-12.87ZM61.13-15.5L61.13-15.21Q61.13-14.75 61.57-14.75L61.57-14.75 70.77-14.75Q71.41-14.75 71.41-15.5L71.41-15.5Q71.41-17.26 69.83-19.1 68.26-20.95 66.38-20.95L66.38-20.95Q64.55-20.95 63.05-19.29 61.55-17.63 61.13-15.5L61.13-15.5ZM104.34-0.78L104.34-0.2Q104.34 0 104.14 0L104.14 0 91.67 0Q91.47 0 91.47-0.2L91.47-0.2 91.47-0.78Q91.47-0.98 91.79-0.98L91.79-0.98Q95.13-1.12 96.31-4.54L96.31-4.54 106.27-33.37Q106.29-33.42 106.29-33.5L106.29-33.5 106.02-34.3Q106.02-34.42 106.12-34.42L106.12-34.42 111-34.42Q111.05-34.4 111.14-34.38 111.22-34.35 111.27-34.23L111.27-34.23 121.6-5.25Q121.94-4.59 122.15-4.05 122.36-3.52 122.62-3.08L122.62-3.08Q123.21-2.08 124.55-1.54L124.55-1.54Q125.68-0.98 126.6-0.98L126.6-0.98Q126.8-0.98 126.8-0.76L126.8-0.76 126.8-0.2Q126.8 0 126.6 0L126.6 0 111.66 0Q111.47 0 111.47-0.2L111.47-0.2 111.47-0.78Q111.47-0.98 112.37-1.03 113.27-1.07 113.86-1.12L113.86-1.12Q117.25-1.49 117.25-3.42L117.25-3.42Q117.25-3.56 117.2-3.76L117.2-3.76 113.52-14.16Q113.49-14.21 113.42-14.38L113.42-14.38Q113.13-15.21 112.39-15.21L112.39-15.21 103.73-15.21Q103-15.21 102.58-14.4L102.58-14.4Q102.51-14.23 102.51-14.21L102.51-14.21 98.85-3.49 98.85-3.27Q98.85-2.64 99.5-2.12L99.5-2.12Q100.99-0.98 103.51-0.98L103.51-0.98 104.14-0.98Q104.34-0.98 104.34-0.78L104.34-0.78ZM104.36-17.92L111.56-17.92Q112-17.92 112-18.29L112-18.29Q112-18.48 111.91-18.73L111.91-18.73 108.27-28.74Q108.02-29.39 107.9-29.39L107.9-29.39Q107.78-29.39 107.51-28.71L107.51-28.71 104.09-18.73Q104-18.48 104-18.2 104-17.92 104.36-17.92L104.36-17.92ZM139.52 0L128.63 0Q128.38-0.05 128.38-0.34L128.38-0.34Q128.38-0.78 129.53-0.93L129.53-0.93Q132.17-1.32 132.17-3.71L132.17-3.71 132.17-16.63Q132.17-17.65 131.04-18.04L131.04-18.04Q130.56-18.21 129.99-18.32 129.43-18.43 129.1-18.53 128.77-18.63 128.69-18.71 128.6-18.8 128.6-19.08 128.6-19.36 128.97-19.56L128.97-19.56 135.2-22.49Q135.49-22.63 135.56-22.63L135.56-22.63Q135.98-22.63 135.98-22.05L135.98-22.05 135.98-3.71Q135.98-1.32 138.61-0.93L138.61-0.93Q139.76-0.78 139.76-0.42 139.76-0.05 139.52 0L139.52 0ZM133.72-29.49Q132.7-29.49 131.94-30.13 131.17-30.76 131.17-31.9 131.17-33.03 131.9-33.69 132.63-34.35 133.64-34.35 134.66-34.35 135.35-33.57 136.05-32.79 136.05-31.88 136.05-30.98 135.39-30.24 134.73-29.49 133.72-29.49ZM174.87-7.69L174.87-7.69 174.82-12.84Q174.82-15.99 174.28-17.26 173.74-18.53 172.91-19.18 172.08-19.82 170.68-19.82 169.27-19.82 164.73-17.63L164.73-17.63Q164.12-17.26 164.1-16.94L164.1-16.94 164.1-3.81Q164.1-1.34 166.74-0.98L166.74-0.98Q167.88-0.81 167.88-0.43 167.88-0.05 167.64 0L167.64 0 156.75 0Q156.51-0.05 156.51-0.34L156.51-0.34Q156.51-0.81 157.65-0.98L157.65-0.98Q160.29-1.34 160.29-3.81L160.29-3.81 160.29-15.97Q160.29-19.8 155.55-19.8L155.55-19.8Q153.82-19.8 150.74-17.75L150.74-17.75Q149.96-17.24 149.6-16.8L149.6-16.8 149.6-3.81Q149.6-1.34 152.23-0.98L152.23-0.98Q153.38-0.81 153.38-0.43 153.38-0.05 153.14 0L153.14 0 142.25 0Q142-0.05 142-0.34L142-0.34Q142-0.81 143.15-0.98L143.15-0.98Q145.79-1.34 145.79-3.76L145.79-3.76 145.79-17.82Q145.79-18.85 144.67-19.24L144.67-19.24Q144.18-19.41 143.62-19.52 143.05-19.63 142.72-19.73 142.39-19.82 142.31-19.91 142.22-20 142.22-20.28 142.22-20.56 142.59-20.75L142.59-20.75 148.82-23.68Q149.11-23.83 149.18-23.83L149.18-23.83Q149.6-23.83 149.6-23.24L149.6-23.24 149.6-19.19Q149.62-19.04 149.78-19.04 149.94-19.04 150.59-19.38 151.23-19.73 152.28-20.35 153.33-20.97 155.05-21.8 156.77-22.63 158.7-22.63L158.7-22.63Q161.8-22.63 163.15-19.97L163.15-19.97Q163.66-18.9 164.07-19.06 164.49-19.21 165.37-19.65L165.37-19.65Q167.44-20.68 169.57-21.66 171.69-22.63 173.08-22.63L173.08-22.63Q178.72-22.63 178.72-12.35L178.72-12.35 178.5-5.22 178.5-3.81Q178.5-1.9 180.41-1.32L180.41-1.32Q181.21-1.05 181.96-0.94 182.7-0.83 182.93-0.73 183.17-0.63 183.17-0.34 183.17-0.05 182.92 0L182.92 0 171.15 0Q170.91-0.05 170.91-0.34L170.91-0.34Q170.91-0.81 172.06-0.98L172.06-0.98Q174.67-1.34 174.67-4L174.67-4Q174.87-5.22 174.87-7.69ZM211.68-18.77L204.33-18.77Q204.18-18.77 204.18-18.55L204.18-18.55 204.18-5.08Q204.18-3.61 204.83-2.78 205.48-1.95 206.48-1.95 207.48-1.95 208.22-2.28 208.97-2.61 209.52-3 210.07-3.39 210.5-3.72 210.94-4.05 211.29-4.05 211.63-4.05 211.63-3.88L211.63-3.88Q211.63-3.3 211.51-3.13L211.51-3.13Q208.58 0.66 205.85 0.66 203.13 0.66 201.75-1.06 200.37-2.78 200.37-5.18L200.37-5.18 200.37-18.77 198.54-18.77Q197.86-18.77 197.82-19.21 197.79-19.65 197.96-19.78L197.96-19.78Q199.25-20.61 201.52-22.75L201.52-22.75Q201.76-23.02 202.18-23.56 202.59-24.1 203.39-25.02 204.18-25.95 204.6-25.95 205.01-25.95 205.01-25.61L205.01-25.61Q205.01-25.56 204.18-22.41L204.18-22.41Q204.18-21.97 204.57-21.95L204.57-21.95 210.8-21.95Q211.87-21.95 211.87-18.92L211.87-18.92Q211.87-18.77 211.68-18.77L211.68-18.77ZM214.31-10.97Q214.31-15.77 217.72-19.23 221.12-22.68 225.88-22.68 230.64-22.68 234.16-19.32 237.68-15.97 237.68-11.04 237.68-6.1 234.34-2.72 231.01 0.66 225.98 0.66 220.95 0.66 217.63-2.76 214.31-6.18 214.31-10.97ZM220.39-4.69L220.39-4.69Q222.78-0.66 226.91-0.66L226.91-0.66Q230.11-0.66 231.8-3.22 233.5-5.79 233.5-9.52 233.5-13.26 231.12-17.19 228.74-21.12 224.71-21.12L224.71-21.12Q221.76-21.12 220.06-18.57 218.36-16.02 218.36-12.1 218.36-8.18 220.39-4.69ZM286.82-7.69L286.82-7.69 286.77-12.84Q286.77-15.99 286.23-17.26 285.69-18.53 284.86-19.18 284.03-19.82 282.63-19.82 281.23-19.82 276.68-17.63L276.68-17.63Q276.07-17.26 276.05-16.94L276.05-16.94 276.05-3.81Q276.05-1.34 278.69-0.98L278.69-0.98Q279.83-0.81 279.83-0.43 279.83-0.05 279.59 0L279.59 0 268.7 0Q268.46-0.05 268.46-0.34L268.46-0.34Q268.46-0.81 269.6-0.98L269.6-0.98Q272.24-1.34 272.24-3.81L272.24-3.81 272.24-15.97Q272.24-19.8 267.5-19.8L267.5-19.8Q265.77-19.8 262.69-17.75L262.69-17.75Q261.91-17.24 261.55-16.8L261.55-16.8 261.55-3.81Q261.55-1.34 264.18-0.98L264.18-0.98Q265.33-0.81 265.33-0.43 265.33-0.05 265.09 0L265.09 0 254.2 0Q253.95-0.05 253.95-0.34L253.95-0.34Q253.95-0.81 255.1-0.98L255.1-0.98Q257.74-1.34 257.74-3.76L257.74-3.76 257.74-17.82Q257.74-18.85 256.62-19.24L256.62-19.24Q256.13-19.41 255.57-19.52 255-19.63 254.67-19.73 254.35-19.82 254.26-19.91 254.17-20 254.17-20.28 254.17-20.56 254.54-20.75L254.54-20.75 260.77-23.68Q261.06-23.83 261.13-23.83L261.13-23.83Q261.55-23.83 261.55-23.24L261.55-23.24 261.55-19.19Q261.57-19.04 261.73-19.04 261.89-19.04 262.54-19.38 263.18-19.73 264.23-20.35 265.28-20.97 267-21.8 268.73-22.63 270.65-22.63L270.65-22.63Q273.75-22.63 275.1-19.97L275.1-19.97Q275.61-18.9 276.02-19.06 276.44-19.21 277.32-19.65L277.32-19.65Q279.39-20.68 281.52-21.66 283.64-22.63 285.03-22.63L285.03-22.63Q290.67-22.63 290.67-12.35L290.67-12.35 290.45-5.22 290.45-3.81Q290.45-1.9 292.36-1.32L292.36-1.32Q293.16-1.05 293.91-0.94 294.65-0.83 294.88-0.73 295.12-0.63 295.12-0.34 295.12-0.05 294.87 0L294.87 0 283.1 0Q282.86-0.05 282.86-0.34L282.86-0.34Q282.86-0.81 284.01-0.98L284.01-0.98Q286.62-1.34 286.62-4L286.62-4Q286.82-5.22 286.82-7.69ZM312.01-4.03Q312.01-3.39 312.61-3.02 313.2-2.64 313.99-2.64 314.77-2.64 315.29-3.04 315.82-3.44 316.01-3.44 316.21-3.44 316.21-2.92 316.21-2.39 315.72-2.03L315.72-2.03Q312.06 0.66 310.76 0.66L310.76 0.66Q309.2 0.66 308.22-2.59L308.22-2.59Q308.15-2.83 308.1-2.81L308.1-2.81Q305.08-0.54 304.29-0.07L304.29-0.07Q302.29 1.07 300.28 0.29 298.26-0.49 297.36-2.29L297.36-2.29Q296.92-3.22 296.92-4.27L296.92-4.27Q296.92-6.35 298.46-7.57 300-8.79 304.32-9.91L304.32-9.91Q305.78-10.3 306.93-10.91 308.08-11.52 308.14-11.69 308.2-11.87 308.2-12.01L308.2-12.01 308.2-16.7Q308.2-19.46 306.05-20.58L306.05-20.58Q305.34-20.95 304.35-20.95 303.37-20.95 302.35-20.17 301.34-19.38 301.34-17.94L301.34-17.94 301.46-16.99Q301.32-16.7 299.7-16.02 298.09-15.33 297.85-15.28L297.85-15.28Q297.46-15.28 297.46-16.22 297.46-17.16 298.02-18.31 298.58-19.46 299.61-20.41L299.61-20.41Q302-22.63 305.08-22.63 308.15-22.63 310.08-20.94 312.01-19.24 312.01-16.89L312.01-16.89 312.01-4.03ZM300.75-4.74Q300.75-3.56 301.66-2.7 302.56-1.83 303.72-1.83 304.88-1.83 306.54-2.82 308.2-3.81 308.2-4.86L308.2-4.86 308.2-9.81Q308.2-10.08 308.08-10.08 307.96-10.08 307.91-10.06L307.91-10.06 302.24-7.42Q301.36-6.79 301.06-6.35 300.75-5.91 300.75-4.74ZM325.8-11.69L325.78-11.69Q325.48-11.69 325.48-10.5L325.48-10.5 325.48-3.71Q325.48-1.32 328.12-0.93L328.12-0.93Q329.27-0.78 329.27-0.39 329.27 0 329.02 0L329.02 0 318.13 0Q317.89-0.05 317.89-0.34L317.89-0.34Q317.89-0.78 319.04-0.93L319.04-0.93Q321.67-1.32 321.67-3.71L321.67-3.71 321.67-34.16Q321.67-35.18 320.55-35.57L320.55-35.57Q320.06-35.74 319.5-35.85 318.94-35.96 318.61-36.06 318.28-36.16 318.2-36.24 318.11-36.33 318.11-36.61 318.11-36.89 318.48-37.08L318.48-37.08 324.7-40.01Q324.99-40.16 325.07-40.16L325.07-40.16Q325.48-40.16 325.48-39.58L325.48-39.58 325.48-15.21Q325.68-14.5 326-14.38 326.31-14.26 326.68-14.26L326.68-14.26Q327.39-14.26 329.01-15.37 330.63-16.48 331.95-17.86 333.27-19.24 333.27-19.76 333.27-20.29 332.81-20.42 332.34-20.56 331.77-20.62 331.2-20.68 330.73-20.81 330.27-20.95 330.27-21.46 330.27-21.97 331.27-21.97L331.27-21.97 340.57-21.97Q341.43-21.97 341.43-21.41L341.43-21.41Q341.43-21.12 340.86-20.95 340.3-20.78 338.69-20.42 337.08-20.07 336.13-19.31L336.13-19.31 329.12-13.84Q329.12-13.53 329.58-13.06L329.58-13.06 339.62-2.49Q340.6-1.49 341.62-1.18 342.65-0.88 342.99-0.78 343.33-0.68 343.33-0.44L343.33-0.44Q343.33 0 342.94 0L342.94 0 332.22 0Q331.98 0 331.98-0.29L331.98-0.29Q331.98-0.73 332.59-0.85L332.59-0.85Q334.42-1.2 334.42-2.1L334.42-2.1Q334.42-2.37 334.05-2.81 333.69-3.25 333.37-3.66L333.37-3.66 325.82-11.65Q325.82-11.67 325.8-11.69L325.8-11.69ZM363.37-12.87L349.21-12.87Q348.8-12.87 348.8-11.08L348.8-11.08Q348.8-7.3 351.04-4.74 353.29-2.17 356.62-2.17 359.95-2.17 363.03-5.05L363.03-5.05Q363.08-5.1 363.15-5.1L363.15-5.1 363.27-5.1Q363.42-5.1 363.55-4.87 363.69-4.64 363.81-4.57L363.81-4.57Q360.98-1.12 357.15 0.2L357.15 0.2Q355.83 0.66 354.17 0.66 352.51 0.66 350.8-0.26 349.09-1.17 347.87-2.66L347.87-2.66Q345.28-5.76 345.28-10.39 345.28-15.01 348.1-18.82 350.92-22.63 355.85-22.63L355.85-22.63Q359.39-22.63 361.64-19.47 363.88-16.31 363.88-13.92L363.88-13.92Q363.88-12.87 363.37-12.87L363.37-12.87ZM349.48-15.5L349.48-15.21Q349.48-14.75 349.92-14.75L349.92-14.75 359.12-14.75Q359.76-14.75 359.76-15.5L359.76-15.5Q359.76-17.26 358.18-19.1 356.61-20.95 354.73-20.95L354.73-20.95Q352.9-20.95 351.4-19.29 349.89-17.63 349.48-15.5L349.48-15.5ZM380.8-33.62L380.8-34.3Q380.8-34.5 380.99-34.5L380.99-34.5 381.53-34.5 389.37-34.67Q390.78-34.72 392.44-34.72L392.44-34.72 395.49-34.72Q399.74-34.72 401.88-34.4 404.02-34.08 406.08-33.65 408.14-33.23 410.47-31.71 412.8-30.2 414.51-28.05L414.51-28.05Q418.13-23.46 418.13-18.14 418.13-12.82 415.34-8.59L415.34-8.59Q411.34-2.47 403.75-0.59L403.75-0.59Q401.33 0 398.79 0L398.79 0 380.99 0Q380.8 0 380.8-0.2L380.8-0.2 380.8-0.88Q380.8-1.07 380.99-1.07L380.99-1.07 381.53-1.07Q385.97-1.07 385.97-3.91L385.97-3.91 385.97-30.66Q385.97-32.03 384.92-32.73 383.87-33.42 382.56-33.42L382.56-33.42 380.99-33.42Q380.8-33.42 380.8-33.62L380.8-33.62ZM397.98-33.57L391.34-33.57Q390.73-33.57 390.73-32.91L390.73-32.91 390.73-3.05Q390.73-1.25 394.13-1.17L394.13-1.17Q395.13-1.15 396.23-1.15L396.23-1.15Q404.02-1.15 408.47-5.52 412.93-9.89 412.93-17.15 412.93-24.41 408.81-28.99 404.7-33.57 397.98-33.57L397.98-33.57ZM422.15-10.97Q422.15-15.77 425.56-19.23 428.96-22.68 433.72-22.68 438.49-22.68 442-19.32 445.52-15.97 445.52-11.04 445.52-6.1 442.18-2.72 438.85 0.66 433.82 0.66 428.79 0.66 425.47-2.76 422.15-6.18 422.15-10.97ZM428.23-4.69L428.23-4.69Q430.62-0.66 434.75-0.66L434.75-0.66Q437.95-0.66 439.65-3.22 441.34-5.79 441.34-9.52 441.34-13.26 438.96-17.19 436.58-21.12 432.55-21.12L432.55-21.12Q429.6-21.12 427.9-18.57 426.21-16.02 426.21-12.1 426.21-8.18 428.23-4.69ZM466.97-7.69L466.97-7.69 466.93-12.84Q466.93-15.99 466.39-17.26 465.85-18.53 465.02-19.18 464.19-19.82 462.79-19.82 461.38-19.82 456.84-17.63L456.84-17.63Q456.23-17.26 456.21-16.94L456.21-16.94 456.21-3.81Q456.21-1.34 458.84-0.98L458.84-0.98Q459.99-0.81 459.99-0.43 459.99-0.05 459.75 0L459.75 0 448.86 0Q448.61-0.05 448.61-0.34L448.61-0.34Q448.61-0.81 449.76-0.98L449.76-0.98Q452.4-1.34 452.4-3.81L452.4-3.81 452.4-17.82Q452.4-18.85 451.28-19.24L451.28-19.24Q450.79-19.41 450.23-19.52 449.66-19.63 449.33-19.73 449.01-19.82 448.92-19.91 448.83-20 448.83-20.28 448.83-20.56 449.2-20.75L449.2-20.75 455.43-23.68Q455.72-23.83 455.79-23.83L455.79-23.83Q456.21-23.83 456.21-23.24L456.21-23.24 456.21-19.43Q456.28-19.19 456.4-19.19L456.4-19.19Q456.55-19.19 457.45-19.63L457.45-19.63Q459.55-20.68 461.68-21.66 463.8-22.63 465.19-22.63L465.19-22.63Q470.83-22.63 470.83-12.35L470.83-12.35 470.61-5.22 470.61-3.81Q470.61-1.9 472.52-1.32L472.52-1.32Q473.32-1.05 474.07-0.94 474.81-0.83 475.04-0.73 475.27-0.63 475.27-0.34 475.27-0.05 475.03 0L475.03 0 463.26 0Q463.02-0.05 463.02-0.34L463.02-0.34Q463.02-0.81 464.17-0.98L464.17-0.98Q466.78-1.34 466.78-4L466.78-4Q466.97-5.22 466.97-7.69ZM492.56-4.03Q492.56-3.39 493.16-3.02 493.75-2.64 494.54-2.64 495.32-2.64 495.84-3.04 496.37-3.44 496.56-3.44 496.76-3.44 496.76-2.92 496.76-2.39 496.27-2.03L496.27-2.03Q492.61 0.66 491.31 0.66L491.31 0.66Q489.75 0.66 488.77-2.59L488.77-2.59Q488.7-2.83 488.65-2.81L488.65-2.81Q485.62-0.54 484.84-0.07L484.84-0.07Q482.84 1.07 480.83 0.29 478.81-0.49 477.91-2.29L477.91-2.29Q477.47-3.22 477.47-4.27L477.47-4.27Q477.47-6.35 479.01-7.57 480.55-8.79 484.87-9.91L484.87-9.91Q486.33-10.3 487.48-10.91 488.63-11.52 488.69-11.69 488.75-11.87 488.75-12.01L488.75-12.01 488.75-16.7Q488.75-19.46 486.6-20.58L486.6-20.58Q485.89-20.95 484.9-20.95 483.91-20.95 482.9-20.17 481.89-19.38 481.89-17.94L481.89-17.94 482.01-16.99Q481.86-16.7 480.25-16.02 478.64-15.33 478.4-15.28L478.4-15.28Q478.01-15.28 478.01-16.22 478.01-17.16 478.57-18.31 479.13-19.46 480.16-20.41L480.16-20.41Q482.55-22.63 485.62-22.63 488.7-22.63 490.63-20.94 492.56-19.24 492.56-16.89L492.56-16.89 492.56-4.03ZM481.3-4.74Q481.3-3.56 482.21-2.7 483.11-1.83 484.27-1.83 485.43-1.83 487.09-2.82 488.75-3.81 488.75-4.86L488.75-4.86 488.75-9.81Q488.75-10.08 488.63-10.08 488.5-10.08 488.46-10.06L488.46-10.06 482.79-7.42Q481.91-6.79 481.61-6.35 481.3-5.91 481.3-4.74ZM512.35-18.77L505.01-18.77Q504.86-18.77 504.86-18.55L504.86-18.55 504.86-5.08Q504.86-3.61 505.51-2.78 506.15-1.95 507.15-1.95 508.16-1.95 508.9-2.28 509.64-2.61 510.19-3 510.74-3.39 511.18-3.72 511.62-4.05 511.96-4.05 512.31-4.05 512.31-3.88L512.31-3.88Q512.31-3.3 512.18-3.13L512.18-3.13Q509.25 0.66 506.53 0.66 503.81 0.66 502.43-1.06 501.05-2.78 501.05-5.18L501.05-5.18 501.05-18.77 499.22-18.77Q498.54-18.77 498.5-19.21 498.46-19.65 498.63-19.78L498.63-19.78Q499.93-20.61 502.2-22.75L502.2-22.75Q502.44-23.02 502.86-23.56 503.27-24.1 504.07-25.02 504.86-25.95 505.27-25.95 505.69-25.95 505.69-25.61L505.69-25.61Q505.69-25.56 504.86-22.41L504.86-22.41Q504.86-21.97 505.25-21.95L505.25-21.95 511.48-21.95Q512.55-21.95 512.55-18.92L512.55-18.92Q512.55-18.77 512.35-18.77L512.35-18.77ZM525.76 0L514.87 0Q514.62-0.05 514.62-0.34L514.62-0.34Q514.62-0.78 515.77-0.93L515.77-0.93Q518.41-1.32 518.41-3.71L518.41-3.71 518.41-16.63Q518.41-17.65 517.28-18.04L517.28-18.04Q516.8-18.21 516.23-18.32 515.67-18.43 515.34-18.53 515.01-18.63 514.93-18.71 514.84-18.8 514.84-19.08 514.84-19.36 515.21-19.56L515.21-19.56 521.43-22.49Q521.73-22.63 521.8-22.63L521.8-22.63Q522.22-22.63 522.22-22.05L522.22-22.05 522.22-3.71Q522.22-1.32 524.85-0.93L524.85-0.93Q526-0.78 526-0.42 526-0.05 525.76 0L525.76 0ZM519.96-29.49Q518.94-29.49 518.18-30.13 517.41-30.76 517.41-31.9 517.41-33.03 518.14-33.69 518.87-34.35 519.88-34.35 520.9-34.35 521.59-33.57 522.29-32.79 522.29-31.88 522.29-30.98 521.63-30.24 520.97-29.49 519.96-29.49ZM529.05-10.97Q529.05-15.77 532.45-19.23 535.86-22.68 540.62-22.68 545.38-22.68 548.9-19.32 552.41-15.97 552.41-11.04 552.41-6.1 549.08-2.72 545.75 0.66 540.72 0.66 535.69 0.66 532.37-2.76 529.05-6.18 529.05-10.97ZM535.13-4.69L535.13-4.69Q537.52-0.66 541.65-0.66L541.65-0.66Q544.84-0.66 546.54-3.22 548.24-5.79 548.24-9.52 548.24-13.26 545.86-17.19 543.48-21.12 539.45-21.12L539.45-21.12Q536.5-21.12 534.8-18.57 533.1-16.02 533.1-12.1 533.1-8.18 535.13-4.69ZM573.87-7.69L573.87-7.69 573.82-12.84Q573.82-15.99 573.28-17.26 572.75-18.53 571.92-19.18 571.09-19.82 569.68-19.82 568.28-19.82 563.74-17.63L563.74-17.63Q563.13-17.26 563.1-16.94L563.1-16.94 563.1-3.81Q563.1-1.34 565.74-0.98L565.74-0.98Q566.89-0.81 566.89-0.43 566.89-0.05 566.64 0L566.64 0 555.76 0Q555.51-0.05 555.51-0.34L555.51-0.34Q555.51-0.81 556.66-0.98L556.66-0.98Q559.3-1.34 559.3-3.81L559.3-3.81 559.3-17.82Q559.3-18.85 558.17-19.24L558.17-19.24Q557.68-19.41 557.12-19.52 556.56-19.63 556.23-19.73 555.9-19.82 555.82-19.91 555.73-20 555.73-20.28 555.73-20.56 556.1-20.75L556.1-20.75 562.32-23.68Q562.62-23.83 562.69-23.83L562.69-23.83Q563.1-23.83 563.1-23.24L563.1-23.24 563.1-19.43Q563.18-19.19 563.3-19.19L563.3-19.19Q563.45-19.19 564.35-19.63L564.35-19.63Q566.45-20.68 568.57-21.66 570.7-22.63 572.09-22.63L572.09-22.63Q577.73-22.63 577.73-12.35L577.73-12.35 577.51-5.22 577.51-3.81Q577.51-1.9 579.41-1.32L579.41-1.32Q580.22-1.05 580.96-0.94 581.71-0.83 581.94-0.73 582.17-0.63 582.17-0.34 582.17-0.05 581.93 0L581.93 0 570.16 0Q569.92-0.05 569.92-0.34L569.92-0.34Q569.92-0.81 571.06-0.98L571.06-0.98Q573.68-1.34 573.68-4L573.68-4Q573.87-5.22 573.87-7.69ZM596.25-0.2L596.25-0.2 596.25-0.88Q596.25-1.07 596.45-1.07L596.45-1.07 596.99-1.07Q598.01-1.15 599.09-1.16 600.16-1.17 601.04-1.42L601.04-1.42Q603.04-2 603.04-4.35L603.04-4.35 603.04-30.08Q603.04-32.5 600.18-33.15L600.18-33.15Q599.38-33.33 598.55-33.45L598.55-33.45 598.04-33.45Q597.84-33.45 597.84-33.64L597.84-33.64 597.84-34.23Q597.84-34.42 598.04-34.42L598.04-34.42 621.25-34.42Q621.69-34.42 621.89-34.27 622.08-34.11 622.13-33.57L622.13-33.57 622.57-26.49Q622.57-26.25 622.21-26.25 621.84-26.25 621.67-26.46L621.67-26.46Q621.52-26.71 621.29-28.25 621.06-29.79 620.45-30.81 619.84-31.84 618.3-32.1L618.3-32.1 608.12-32.1Q607.8-32.1 607.8-31.79L607.8-31.79 607.8-19.17Q607.8-18.92 608.05-18.92L608.05-18.92 616.49-18.92Q619.76-18.92 619.76-22.73L619.76-22.73Q619.76-22.92 619.96-22.92L619.96-22.92 620.55-22.92Q620.74-22.92 620.74-22.73L620.74-22.73 620.74-12.28Q620.74-12.08 620.55-12.08L620.55-12.08 619.96-12.08Q619.76-12.08 619.76-12.28L619.76-12.28Q619.76-15.89 617.66-16.46L617.66-16.46Q617.08-16.6 616.42-16.6L616.42-16.6 608.05-16.6Q607.8-16.6 607.8-16.36L607.8-16.36 607.8-4.47Q607.8-2.64 609.49-2.39L609.49-2.39Q609.97-2.32 610.51-2.32L610.51-2.32 618.64-2.32Q621.16-2.32 622.55-4.54L622.55-4.54Q623.55-6.13 623.77-8.18L623.77-8.18Q623.84-8.86 624.5-8.86L624.5-8.86Q624.79-8.86 624.79-8.54L624.79-8.54 623.99-0.34Q623.84 0 623.65 0L623.65 0 596.45 0Q596.25 0 596.25-0.2ZM643.74-4.03Q643.74-3.39 644.33-3.02 644.93-2.64 645.71-2.64 646.5-2.64 647.02-3.04 647.54-3.44 647.74-3.44 647.94-3.44 647.94-2.92 647.94-2.39 647.45-2.03L647.45-2.03Q643.79 0.66 642.49 0.66L642.49 0.66Q640.93 0.66 639.95-2.59L639.95-2.59Q639.88-2.83 639.83-2.81L639.83-2.81Q636.8-0.54 636.02-0.07L636.02-0.07Q634.02 1.07 632.01 0.29 629.99-0.49 629.09-2.29L629.09-2.29Q628.65-3.22 628.65-4.27L628.65-4.27Q628.65-6.35 630.19-7.57 631.72-8.79 636.05-9.91L636.05-9.91Q637.51-10.3 638.66-10.91 639.81-11.52 639.87-11.69 639.93-11.87 639.93-12.01L639.93-12.01 639.93-16.7Q639.93-19.46 637.78-20.58L637.78-20.58Q637.07-20.95 636.08-20.95 635.09-20.95 634.08-20.17 633.07-19.38 633.07-17.94L633.07-17.94 633.19-16.99Q633.04-16.7 631.43-16.02 629.82-15.33 629.58-15.28L629.58-15.28Q629.19-15.28 629.19-16.22 629.19-17.16 629.75-18.31 630.31-19.46 631.33-20.41L631.33-20.41Q633.73-22.63 636.8-22.63 639.88-22.63 641.81-20.94 643.74-19.24 643.74-16.89L643.74-16.89 643.74-4.03ZM632.48-4.74Q632.48-3.56 633.38-2.7 634.29-1.83 635.45-1.83 636.61-1.83 638.27-2.82 639.93-3.81 639.93-4.86L639.93-4.86 639.93-9.81Q639.93-10.08 639.81-10.08 639.68-10.08 639.63-10.06L639.63-10.06 633.97-7.42Q633.09-6.79 632.79-6.35 632.48-5.91 632.48-4.74ZM662.09-18.95L662.09-16.7Q662.09-16.16 661.69-16.16 661.29-16.16 661.07-16.75L661.07-16.75Q660.48-18.36 659.32-19.6 658.16-20.85 656.45-20.85L656.45-20.85Q654.21-20.85 653.43-18.6L653.43-18.6Q653.18-17.85 653.18-17.04 653.18-16.24 654.21-15.25 655.23-14.26 657.58-12.89 659.92-11.52 660.99-10.57L660.99-10.57Q663.44-8.4 663.44-5.54 663.44-2.69 661.34-1.01 659.24 0.66 656.45 0.66L656.45 0.66Q654.96 0.66 653.76 0.26 652.55-0.15 652.36-0.15 652.18-0.15 651.78 0.26 651.38 0.66 651.13 0.66L651.13 0.66 650.72 0.66Q650.57 0.66 650.35-1.98 650.13-4.61 650.13-5.1 650.13-5.59 650.22-5.64 650.3-5.69 650.5-5.69 650.69-5.69 650.83-5.57 650.96-5.44 651.06-5.26 651.16-5.08 651.22-4.88 651.28-4.69 651.52-4.15L651.52-4.15Q653.18-0.61 656.65-0.61L656.65-0.61Q658.19-0.61 659.11-1.75 660.04-2.88 660.04-4.27 660.04-5.66 659.31-6.62 658.58-7.57 657.49-8.35 656.4-9.13 655.14-9.86L655.14-9.86Q650.2-12.74 650.2-16.24L650.2-16.24Q650.2-18.85 652.45-20.74 654.7-22.63 657.06-22.63 659.43-22.63 660.57-22.12 661.7-21.61 661.9-21.25 662.09-20.9 662.09-18.95L662.09-18.95ZM681.55-21.97L690.8-21.97Q691.07-21.9 691.07-21.63 691.07-21.36 691.02-21.28 690.97-21.19 690.79-21.13 690.61-21.07 690.28-21.02 689.95-20.97 689.24-20.84 688.53-20.7 687.97-19.85 687.41-18.99 686.77-17.48L686.77-17.48 675.3 10.96 673.71 14.33Q673.1 15.63 671.15 15.63L671.15 15.63Q670.29 15.63 669.78 15.06 669.27 14.5 669.27 13.73 669.27 12.96 669.65 12.61 670.03 12.26 670.54 12.04 671.05 11.82 671.6 11.63 672.15 11.45 672.83 10.8 673.52 10.16 673.64 9.84L673.64 9.84Q677.74 0.66 677.74 0.24 677.74-0.17 677.25-0.78L677.25-0.78 669.2-17.6Q668.29-20.07 666.09-20.78L666.09-20.78Q665.92-20.83 665.68-20.85L665.68-20.85Q664.65-20.95 664.65-21.46 664.65-21.97 665.24-21.97L665.24-21.97 676.1-21.97Q676.3-21.97 676.3-21.59 676.3-21.22 675.96-21.08 675.62-20.95 674.44-20.95L674.44-20.95Q672.56-20.95 672.56-19.48L672.56-19.48 672.78-18.9 679.11-5.35Q679.6-4.1 680.08-5.42L680.08-5.42Q680.13-5.54 680.69-7.01L680.69-7.01Q684.01-15.43 684.42-16.75 684.82-18.07 684.82-18.73 684.82-19.38 684.12-20.12 683.43-20.85 682.22-20.85 681.01-20.85 681.01-21.56L681.01-21.56Q681.01-21.97 681.55-21.97L681.55-21.97ZM694.85-2.25L694.85-2.25Q694.85-3.42 695.67-4.24 696.49-5.05 697.64-5.05 698.78-5.05 699.61-4.17 700.44-3.3 700.44-2.15 700.44-1 699.66-0.17 698.88 0.66 697.7 0.66 696.51 0.66 695.68-0.17 694.85-1 694.85-2.25ZM697.61-36.45L698.51-36.45Q699-36.45 699.51-36.43 700.03-36.4 700.15-36.06L700.15-36.06 700.15-34.79 698.34-11.3Q698.22-10.35 697.61-10.35L697.61-10.35Q696.98-10.35 696.85-11.3L696.85-11.3 695.05-34.79 695.05-36.06Q695.05-36.4 695.41-36.4L695.41-36.4 697.61-36.45Z" opacity="1" transform="matrix(1,0,0,1,0,0)" fill="#8d021f" class="undefined-text-1" data-fill-palette-color="secondary" id="text-1"></path></svg></g></svg></g></svg></g></svg></g><g transform="matrix(1,0,0,1,83.07016120593215,0)"><svg viewBox="0 0 229.37967758813568 229.37967758813568" height="229.37967758813568" width="229.37967758813568"><g><svg></svg></g><g id="icon-0"><svg viewBox="0 0 229.37967758813568 229.37967758813568" height="229.37967758813568" width="229.37967758813568"><g><path d="M0 114.69c0-63.341 51.348-114.69 114.69-114.69 63.341 0 114.69 51.348 114.69 114.69 0 63.341-51.348 114.69-114.69 114.69-63.341 0-114.69-51.348-114.69-114.69zM114.69 223.432c60.057 0 108.742-48.686 108.742-108.742 0-60.057-48.686-108.742-108.742-108.743-60.057 0-108.742 48.686-108.743 108.743 0 60.057 48.686 108.742 108.743 108.742z" data-fill-palette-color="accent" fill="#ed2647" stroke="transparent"></path></g><g transform="matrix(1,0,0,1,55.23602677120622,46.43929060637046)"><svg viewBox="0 0 118.90762404572324 136.50109637539475" height="136.50109637539475" width="118.90762404572324"><g><svg xmlns="http://www.w3.org/2000/svg" xmlns:xlink="http://www.w3.org/1999/xlink" version="1.1" x="0" y="0" viewBox="10.100000381469727 5.199999809265137 78.4000015258789 90" enable-background="new 0 0 100 100" xml:space="preserve" height="136.50109637539475" width="118.90762404572324" class="icon-c-0" data-fill-palette-color="accent" id="c-0"><polygon fill-rule="evenodd" clip-rule="evenodd" fill="#ed2647" points="88.5,28.2 68.4,59.9 68.5,22.3 " data-fill-palette-color="accent"></polygon><polygon fill-rule="evenodd" clip-rule="evenodd" fill="#ed2647" points="49.8,5.2 67.2,38.5 34.7,19.6 " data-fill-palette-color="accent"></polygon><polygon fill-rule="evenodd" clip-rule="evenodd" fill="#ed2647" points="67.8,38.3 67.8,22.3 60.8,24.5 " data-fill-palette-color="accent"></polygon><polygon fill-rule="evenodd" clip-rule="evenodd" fill="#ed2647" points="88.2,73.2 50.6,71.7 83.2,52.9 " data-fill-palette-color="accent"></polygon><polygon fill-rule="evenodd" clip-rule="evenodd" fill="#ed2647" points="69.1,60.3 82.8,52.3 77.4,47.4 " data-fill-palette-color="accent"></polygon><polygon fill-rule="evenodd" clip-rule="evenodd" fill="#ed2647" points="48.7,95.2 31.5,61.9 63.9,80.9 " data-fill-palette-color="accent"></polygon><polygon fill-rule="evenodd" clip-rule="evenodd" fill="#ed2647" points="50.5,72.2 64.2,80.2 65.8,73.1 " data-fill-palette-color="accent"></polygon><polygon fill-rule="evenodd" clip-rule="evenodd" fill="#ed2647" points="10.1,72 30.5,40.4 30.1,78 " data-fill-palette-color="accent"></polygon><polygon fill-rule="evenodd" clip-rule="evenodd" fill="#ed2647" points="30.9,62.1 30.8,78 37.8,75.8 " data-fill-palette-color="accent"></polygon><polygon fill-rule="evenodd" clip-rule="evenodd" fill="#ed2647" points="11,27 48.5,28.9 15.8,47.3 " data-fill-palette-color="accent"></polygon><polygon fill-rule="evenodd" clip-rule="evenodd" fill="#ed2647" points="30,40.1 16.1,47.9 21.5,52.9 " data-fill-palette-color="accent"></polygon><polygon fill-rule="evenodd" clip-rule="evenodd" fill="#ed2647" points="48.2,28.3 34.5,20.2 32.9,27.4 " data-fill-palette-color="accent"></polygon></svg></g></svg></g></svg></g></svg></g><g></g></svg></g><defs></defs></svg><rect width="270.46564035211276" height="247.2" fill="none" stroke="none" visibility="hidden"></rect></g></svg></g></svg>